<svg t="1711628930147" class="icon" viewBox="0 0 1035 1024" version="1.1" xmlns="http://www.w3.org/2000/svg" p-id="1388"
     width="200" height="200">
    <path d="M670.864238 122.220145c-2.933722-1.152383-7.429283 3.208099-9.966214 9.691837l-37.918891 96.656658 6.914299 13.790606 41.73484-106.251408c2.486277-6.487959 2.165467-12.73531-0.764034-13.887693zM786.723059 69.328716c-3.338956-2.021947-9.029111 1.190374-12.638223 7.142243l-124.59245 205.094638 7.492601 14.98098 129.210424-212.713874c3.634439-5.947647 3.870825-12.482039 0.527648-14.503987zM921.906458 187.998846c-2.435623-3.043473-8.88137-1.967071-14.335139 2.38919L714.772988 344.971993c2.021947 0.4981 3.997461 0.932882 5.960311 1.203038l12.942148 1.806666 182.756136-146.525719c5.45799-4.360482 7.91894-10.417881 5.474875-13.457132zM794.933261 198.062147c-2.376526-2.089486-8.066682 0.476994-12.680435 5.698598L676.529066 323.532603a100.641455 100.641455 0 0 0 8.885591 7.256214l105.440941-119.438385c4.605311-5.217383 6.445747-11.194578 4.077663-13.288285zM414.448451 222.207316l7.154906-14.719266-27.627645-82.266644c-2.216121-6.601931-6.479517-11.181915-9.468115-10.181494-2.988598 1.004642-3.621775 7.226666-1.405654 13.828596l31.346508 93.338808zM623.591205 17.855606c1.359221-6.829875-0.620514-13.043457-4.482897-13.807491-3.81595-0.764034-8.070903 4.200077-9.421681 11.029952l-26.648331 133.756639 10.325014 20.65425 30.227895-151.63335zM439.26901 0.046433c-3.858162 0.590966-6.150264 6.70746-5.090747 13.592211l19.590512 127.682356 10.911759-22.444033-16.475279-107.386906c-1.055296-6.888971-5.073862-12.034594-8.936245-11.443628zM158.40835 701.130123c-6.116495 3.330514-9.886012 8.319953-8.374828 11.089049s7.750093 2.31743 13.866588-1.013084l86.154353-46.880463a98.045427 98.045427 0 0 0-3.119454-11.346541l-88.526659 48.151039zM268.910489 57.779559c-3.42338 1.874205-3.482476 8.408597-0.135077 14.512428L384.579357 283.621314l7.606573-15.643706L281.215239 65.478997c-3.347398-6.112274-8.885591-9.569423-12.30475-7.699438zM939.365273 376.622427l59.278078-20.088612c6.59771-2.237227 10.979298-7.087367 9.712943-10.785124-1.253691-3.697757-7.661448-4.892352-14.271821-2.655124l-86.061487 29.164156 31.342287 4.364704zM103.735582 574.3511c0.468551 3.123676 6.49218 4.829034 13.376931 3.782181l57.496739-8.670311-10.41366-10.025311-48.792659 7.336417c-6.88475 1.059517-12.140124 4.466012-11.667351 7.577024zM160.531605 293.600191c-1.646262 2.693115 1.869984 7.864065 7.813411 11.498504l85.99817 52.570618 17.627661-2.667788-97.644414-59.687533c-5.939205-3.634439-12.152787-4.406915-13.794828-1.713801zM871.741914 312.802355l-79.586192 43.322005 19.100855 2.659346 65.955991-35.905387c6.116495-3.330514 9.894454-8.324174 8.353722-11.09327-1.485857-2.769096-7.716323-2.31743-13.824376 1.017306zM875.101976 730.408251c1.671589-2.701557-1.848878-7.872507-7.817631-11.506946l-79.89856-48.839092a73.967797 73.967797 0 0 0-0.122414 13.372709l74.035335 45.259529c5.951869 3.630218 12.157008 4.398473 13.80327 1.7138zM844.321107 583.903638l70.392454 14.233831c6.825654 1.384548 12.929485-0.016885 13.545778-3.10257 0.624735-3.085685-4.444906-6.758115-11.27056-8.129999l-62.823873-12.718426-9.843799 9.717164zM651.125984 908.96431c0.8569-0.28704 1.494299-1.046853 1.96285-2.085265l-10.320793-5.352461c2.342757 5.069641 5.799906 8.298847 8.357943 7.437726zM579.745773 868.879952l-15.588831-8.087788 23.305154 151.713554c1.055296 6.893193 5.078084 12.047257 8.906697 11.45207 3.858162-0.603629 6.150264-6.720124 5.094968-13.604874l-21.717988-141.472962zM766.731534 966.211999c0.113972-0.088645 0.21528-0.189953 0.32081-0.265935l-11.840419-6.141821c3.381168 5.2807 8.353722 8.151105 11.519609 6.407756zM501.898708 917.81191c-0.17729 6.964953 2.262554 12.731089 5.415778 12.802849 3.153224 0.084424 5.880108-5.546635 6.053177-12.515809l1.70958-68.231208c-3.904595 0.240607-7.758535 0.709159-11.511167 1.39299l-1.667368 66.551178zM902.218858 840.002836l-103.520302-90.873636 3.95947 22.376493 90.202469 79.172516c5.20894 4.605311 11.625139 5.960311 14.170513 3.051916 2.596028-2.963271 0.434782-9.13042-4.81215-13.727289zM1023.126215 516.170529l-107.716158-2.397632-14.073426 13.887693 121.447668 2.71c6.960731 0.147741 12.747974-2.904174 12.815513-6.817211 0.113972-3.908816-5.508644-7.226666-12.473597-7.38285zM991.230953 688.749392l-181.48556-70.671053c-3.258754 3.376947-6.251573 7.344859-8.944687 11.739111l185.293067 72.15691c6.487959 2.528489 12.94637 1.620934 14.364687-2.021947 1.422539-3.630218-2.743769-8.674532-9.227507-11.203021zM256.778808 184.575466c-2.465171 1.967071-0.932882 8.028691 3.410717 13.474017L360.244235 323.553709a83.630086 83.630086 0 0 0 7.695217-8.746292L269.155318 190.90302c-4.343598-5.445327-9.911339-8.294625-12.37651-6.327554zM44.402628 335.242166l100.210895 39.02484 28.146851-4.259174L49.548251 322.034083c-6.49218-2.528489-12.959033-1.620934-14.377351 2.013504-1.409875 3.625997 2.735327 8.66609 9.231728 11.194579zM97.847032 495.537385l-85.027298-1.895312c-6.960731-0.156184-12.731089 2.908395-12.815513 6.808769-0.088645 3.900373 5.538193 7.222445 12.498924 7.374408l100.426175 2.237227-15.082288-14.525092zM412.042377 1006.135952c-1.363442 6.834096 0.654283 13.043457 4.482897 13.807491 3.828613 0.78514 8.075124-4.204299 9.438566-11.013068l26.85939-134.697963-16.19246 8.632321-24.588393 123.271219zM214.035105 607.466284l-177.036432 60.004122c-6.59771 2.228785-10.970856 7.087367-9.717165 10.780903 1.253691 3.701978 7.674111 4.883909 14.271822 2.655124l183.9845-62.3511-11.502725-11.089049zM113.718681 835.992712c2.444065 3.051916 8.885591 1.971293 14.318254-2.380748l114.938604-92.156876 3.469812-20.97506-127.285564 102.059772c-5.432663 4.35204-7.880949 10.413659-5.441106 13.452912z"
          fill="#6E6E96" opacity=".24" p-id="1389"></path>
    <path d="M95.749103 125.284724l75.981302 54.875384-29.658035 41.072115-75.981301-54.879606z" fill="#FFBF00"
          p-id="1390"></path>
    <path d="M571.598889 613.33795l88.644851 88.640631-35.816741 35.81252-88.644852-88.644852z" fill="#FFA385"
          p-id="1391"></path>
    <path d="M768.833684 102.849134l25.614141 43.701912-72.148467 42.292036-25.614141-43.701911z" fill="#7BC9DB"
          p-id="1392"></path>
    <path d="M187.108176 797.706578l42.735261 27.197085-59.096568 92.857593-42.739482-27.197085z" fill="#FFBF00"
          p-id="1393"></path>
    <path d="M902.61565 687.03137l54.875384 67.538935-39.30766 31.941695-54.875384-67.538935z" fill="#FFFF00"
          p-id="1394"></path>
    <path d="M914.093047 421.240335h-271.675364l-133.912823-290.767777-126.251375 290.767777H110.595005l225.744668 202.794094-65.044215 275.47443 237.209402-164.529066 256.352469 156.87606-76.517392-294.600612z"
          fill="#FFD28F" p-id="1395"></path>
    <path d="M271.295458 899.508859l239.936287-355.955513 253.625584 348.302507-256.352469-156.87606z" fill="#EBC184"
          p-id="1396"></path>
    <path d="M110.595005 421.240335l400.63674 122.313011-174.892072 80.481083zM914.093047 421.240335l-402.861302 122.313011 177.108192 53.701895z"
          fill="#EBC184" p-id="1397"></path>
    <path d="M511.231745 543.553346V136.390657L382.253485 421.240335zM511.231745 543.553346l131.185938-122.313011h271.675364z"
          fill="#FFFFFF" opacity=".34" p-id="1398"></path>
    <path d="M382.253485 421.240335H110.595005l400.63674 122.313011z" fill="#FFFFFF" opacity=".34" p-id="1399"></path>
    <path d="M508.50486 734.979793l2.726885-191.426447-239.936287 355.955513z" fill="#D9B27A" p-id="1400"></path>
    <path d="M173.663707 445.415053l290.396313 53.402191 47.171725-304.651249v349.387351z" fill="#FFF3E0"
          p-id="1401"></path>
    <path d="M271.295458 926.064324a16.888955 16.888955 0 0 1-16.433067-20.764002l62.74367-265.727717-218.294279-196.099297a16.884734 16.884734 0 0 1 11.283223-29.446975h260.582095l121.840238-280.61161a16.876291 16.876291 0 0 1 15.30179-10.156167h0.185732c6.585046 0 12.574905 3.828613 15.331338 9.822694l129.391936 280.949304h260.860692a16.880512 16.880512 0 1 1 10.37989 30.202567l-216.998376 169.185032 73.72719 283.870363c1.730685 6.665249-0.755592 13.710404-6.285342 17.813394s-13.001245 4.432243-18.86869 0.835795l-246.964557-151.13103-228.163406 158.252166a16.926945 16.926945 0 0 1-9.620077 3.005483zM154.655718 447.7958l192.967179 173.347118a16.888955 16.888955 0 0 1 5.149843 16.44151l-54.930259 232.629418 201.03386-139.438352a16.918503 16.918503 0 0 1 18.438129-0.527648l220.683469 135.048321-66.002424-254.132126a16.87207 16.87207 0 0 1 5.960311-17.560123l187.01531-145.808118h-222.557674a16.884734 16.884734 0 0 1-15.33556-9.822694l-118.125596-256.483325-111.21552 256.145631a16.884734 16.884734 0 0 1-15.487522 10.160388H154.655718z"
          fill="#6E6E96" p-id="1402"></path>
    <path d="M192.40154 216.897067l-10.054859 10.054859 137.306654 120.531672c4.976775-1.24947 10.054859-3.186993 15.05274-5.660607L192.40154 216.897067z"
          fill="#6E6E96" opacity=".24" p-id="1403"></path>
</svg>